<?xml version="1.0" encoding="utf-8"?>
<!-- Generated by IcoMoon.io -->
<!DOCTYPE svg PUBLIC "-//W3C//DTD SVG 1.1//EN" "http://www.w3.org/Graphics/SVG/1.1/DTD/svg11.dtd">
<svg version="1.1" xmlns="http://www.w3.org/2000/svg" xmlns:xlink="http://www.w3.org/1999/xlink" width="32" height="32" viewBox="0 0 32 32">
<path fill="#000" d="M6.827 20.48c0 0.706 0.574 1.28 1.28 1.28h4.267v3.2c0 1.647 1.34 2.987 2.987 2.987h1.28c1.647 0 2.987-1.34 2.987-2.987v-3.2h4.267c0.706 0 1.28-0.574 1.28-1.28v-3.2h-18.347v3.2zM7.68 18.133h16.64v2.347c0 0.235-0.191 0.427-0.427 0.427h-5.12v4.053c0 1.176-0.957 2.133-2.133 2.133h-1.28c-1.176 0-2.133-0.957-2.133-2.133v-4.053h-5.12c-0.235 0-0.427-0.191-0.427-0.427v-2.347z"></path>
<path d="M15.787 25.6h0.427c0.706 0 1.28-0.574 1.28-1.28v-0.427c0-0.706-0.574-1.28-1.28-1.28h-0.427c-0.706 0-1.28 0.574-1.28 1.28v0.427c0 0.706 0.574 1.28 1.28 1.28zM15.36 23.893c0-0.235 0.191-0.427 0.427-0.427h0.427c0.235 0 0.427 0.191 0.427 0.427v0.427c0 0.235-0.191 0.427-0.427 0.427h-0.427c-0.235 0-0.427-0.191-0.427-0.427v-0.427z"></path>
<path d="M25.173 5.76h-18.347c-0.471 0-0.853 0.383-0.853 0.853l0.89 10.027h18.274l0.888-9.989 0.002-0.038c0-0.471-0.383-0.853-0.853-0.853z"></path>
</svg>
