<svg xmlns="http://www.w3.org/2000/svg" viewBox="0 0 512 512"><path fill="#FFF" d="M108.8 328c0 11.2 9.6 20.8 20.8 20.8h68.8V400c0 25.6 20.8 48 48 48h20.8c25.6 0 48-20.8 48-48v-51.2H384c11.2 0 20.8-9.6 20.8-20.8v-51.2h-296V328zm14.4-38.4h265.6v36.8c0 3.2-3.2 6.4-6.4 6.4h-81.6V400c0 19.2-16 33.6-33.6 33.6h-20.8c-19.2 0-33.6-16-33.6-33.6v-65.6h-83.2c-3.2 0-6.4-3.2-6.4-6.4v-38.4z"/><path fill="#FFF" d="M252.8 409.6h6.4c11.2 0 20.8-9.6 20.8-20.8v-6.4c0-11.2-9.6-20.8-20.8-20.8h-6.4c-11.2 0-20.8 9.6-20.8 20.8v6.4c0 11.2 9.6 20.8 20.8 20.8zm-6.4-27.2c0-3.2 3.2-6.4 6.4-6.4h6.4c3.2 0 6.4 3.2 6.4 6.4v6.4c0 3.2-3.2 6.4-6.4 6.4h-6.4c-3.2 0-6.4-3.2-6.4-6.4v-6.4zM403.2 92.8H108.8c-6.4 0-12.8 4.8-12.8 12.8l14.4 160h292.8l14.4-160c-1.6-8-8-12.8-14.4-12.8z"/><path fill="none" d="M0 0h512v512H0z"/></svg>