<?xml version="1.0" encoding="utf-8"?>
<!-- Generator: Adobe Illustrator 21.1.0, SVG Export Plug-In . SVG Version: 6.00 Build 0)  -->
<svg version="1.1" id="レイヤー_1" xmlns="http://www.w3.org/2000/svg" xmlns:xlink="http://www.w3.org/1999/xlink" x="0px"
	 y="0px" viewBox="0 0 512 512" enable-background="new 0 0 512 512" xml:space="preserve">
<g>
	<path fill="#FFFFFF" d="M108.8,328c0,11.2,9.6,20.8,20.8,20.8h68.8V400c0,25.6,20.8,48,48,48h20.8c25.6,0,48-20.8,48-48v-51.2H384
		c11.2,0,20.8-9.6,20.8-20.8v-51.2h-296V328L108.8,328z M123.2,289.6h265.6v36.8c0,3.2-3.2,6.4-6.4,6.4h-81.6V400
		c0,19.2-16,33.6-33.6,33.6h-20.8c-19.2,0-33.6-16-33.6-33.6v-65.6h-83.2c-3.2,0-6.4-3.2-6.4-6.4L123.2,289.6z"/>
	<path fill="#FFFFFF" d="M252.8,409.6h6.4c11.2,0,20.8-9.6,20.8-20.8v-6.4c0-11.2-9.6-20.8-20.8-20.8h-6.4
		c-11.2,0-20.8,9.6-20.8,20.8v6.4C232,400,241.6,409.6,252.8,409.6z M246.4,382.4c0-3.2,3.2-6.4,6.4-6.4h6.4c3.2,0,6.4,3.2,6.4,6.4
		v6.4c0,3.2-3.2,6.4-6.4,6.4h-6.4c-3.2,0-6.4-3.2-6.4-6.4V382.4z"/>
	<path fill="#FFFFFF" d="M403.2,92.8H108.8c-6.4,0-12.8,4.8-12.8,12.8l14.4,160h292.8l14.4-160l0,0C416,97.6,409.6,92.8,403.2,92.8
		L403.2,92.8z"/>
	<rect fill="none" width="512" height="512"/>
</g>
</svg>
