<svg viewBox="0 0 512 512" xmlns="http://www.w3.org/2000/svg"><g><path d="m108.8 328a21.18 21.18 0 0 0 20.8 20.8h68.8v51.2c0 25.6 20.8 48 48 48h20.8c25.6 0 48-20.8 48-48v-51.2h68.8a21.18 21.18 0 0 0 20.8-20.8v-51.2h-296zm14.4-38.4h265.6v36.8a6.88 6.88 0 0 1 -6.4 6.4h-81.6v67.2c0 19.2-16 33.6-33.6 33.6h-20.8c-19.2 0-33.6-16-33.6-33.6v-65.6h-83.2a6.88 6.88 0 0 1 -6.4-6.4z"/><path d="m252.8 409.6h6.4a21.18 21.18 0 0 0 20.8-20.8v-6.4a21.18 21.18 0 0 0 -20.8-20.8h-6.4a21.18 21.18 0 0 0 -20.8 20.8v6.4a21.18 21.18 0 0 0 20.8 20.8zm-6.4-27.2a6.88 6.88 0 0 1 6.4-6.4h6.4a6.88 6.88 0 0 1 6.4 6.4v6.4a6.88 6.88 0 0 1 -6.4 6.4h-6.4a6.88 6.88 0 0 1 -6.4-6.4z"/><path d="m403 106.8a1.16 1.16 0 0 1 .37.36l-13 144.44h-267.17l-13-144.8zm.17-14h-294.37a12.62 12.62 0 0 0 -12.8 12.8l14.4 160h292.8l14.4-160c-1.6-8-8-12.8-14.4-12.8z"/></g></svg>