<svg viewBox="0 0 512 108" xmlns="http://www.w3.org/2000/svg"><g fill="#4c4645"><path d="m0 72.73 5.79-6.65c5.49 5.69 13.1 9.44 21 9.44 10 0 15.91-5 15.91-12.38 0-7.77-5.51-10.25-12.7-13.39l-10.92-4.82c-7.08-3.03-15.42-8.41-15.42-19.61 0-11.63 10.14-20.2 24-20.2a31.42 31.42 0 0 1 22.34 9.43l-5.13 6.22a24.38 24.38 0 0 0 -17.28-7.14c-8.54 0-14.19 4.31-14.19 11.12 0 7.33 6.63 10.08 12.6 12.6l10.89 4.65c8.81 3.79 15.68 9 15.68 20.36 0 12-9.94 21.63-25.94 21.63a36.49 36.49 0 0 1 -26.63-11.26z"/><path d="m66.57 0h9.54v22.6l-.34 11.59c5.27-5.09 11-9.33 18.72-9.33 11.88 0 17.22 7.67 17.22 22v35.78h-9.54v-34.49c0-10.51-3.18-15-10.64-15-5.77 0-9.76 2.94-15.42 8.66v40.83h-9.54z"/><path d="m127.93 8.5c0-3.75 2.88-6.16 6.59-6.16s6.59 2.41 6.59 6.16c0 3.6-2.88 6.16-6.59 6.16s-6.59-2.56-6.59-6.16zm1.74 17.75h9.54v56.39h-9.54z"/><path d="m159.88 65.21v-31.21h-8.39v-7.2l8.82-.55 1.15-15.81h8v15.81h15.24v7.75h-15.28v31.37c0 6.9 2.22 10.89 8.72 10.89a19 19 0 0 0 6.42-1.51l1.85 7.19a33.78 33.78 0 0 1 -10.41 2.06c-12 0-16.12-7.57-16.12-18.79z"/><path d="m191.49 68c0-12.28 10.6-18.42 34.63-21 0-7.25-2.43-14.24-11.64-14.24-6.52 0-12.4 3.09-16.82 6.05l-3.73-6.54c5.19-3.41 13.1-7.37 22.15-7.37 13.76 0 19.58 9.15 19.58 23.19v34.55h-7.88l-.78-6.74h-.32c-5.4 4.47-11.68 8.1-18.68 8.1-9.43 0-16.51-5.83-16.51-16zm34.63.88v-15.66c-18.9 2.28-25.29 6.9-25.29 14.11 0 6.41 4.35 9 9.88 9s9.95-2.63 15.41-7.45z"/><path d="m239.34 106.34 1.87-7.28a18.21 18.21 0 0 0 5.35 1c5.64 0 7-4.23 7-11.08v-62.73h9.54v62.75c0 11.52-4.22 18.81-15.46 18.81a22.84 22.84 0 0 1 -8.3-1.47zm12.44-97.84c0-3.75 2.88-6.16 6.6-6.16s6.62 2.41 6.62 6.16c0 3.6-2.88 6.16-6.58 6.16s-6.64-2.56-6.64-6.16z"/><path d="m280.35 8.5c0-3.75 2.88-6.16 6.59-6.16s6.59 2.41 6.59 6.16c0 3.6-2.88 6.16-6.59 6.16s-6.59-2.56-6.59-6.16zm1.75 17.75h9.54v56.39h-9.54z"/><path d="m308.66 76.81c0-4.38 3.12-7.37 6.91-7.37s6.91 3 6.91 7.37a6.92 6.92 0 1 1 -13.82 0z"/><path d="m336 44.64c0-24.55 14.47-39.52 33.79-39.52a28.37 28.37 0 0 1 20.94 9.39l-5.31 6.3c-4-4.27-9-7.18-15.46-7.18-14.41 0-23.96 11.79-23.96 30.76 0 19.13 9.13 31.13 23.57 31.13 7.27 0 12.79-3.17 17.65-8.55l5.3 6.07c-6 7-13.46 11-23.35 11-18.98-.04-33.17-14.67-33.17-39.4z"/><path d="m398.34 72.73 5.79-6.65c5.49 5.69 13.09 9.44 21 9.44 10 0 15.91-5 15.91-12.38 0-7.77-5.51-10.25-12.7-13.39l-10.93-4.82c-7.1-3-15.42-8.41-15.42-19.61 0-11.63 10.13-20.2 24-20.2a31.42 31.42 0 0 1 22.41 9.43l-5.13 6.22a24.38 24.38 0 0 0 -17.27-7.14c-8.54 0-14.19 4.31-14.19 11.12 0 7.33 6.63 10.08 12.6 12.6l10.82 4.65c8.81 3.79 15.68 9 15.68 20.36 0 12.06-9.91 21.64-25.91 21.64a36.49 36.49 0 0 1 -26.66-11.27z"/><path d="m458.66 72.73 5.8-6.65c5.48 5.69 13.08 9.44 21 9.44 10 0 15.91-5 15.91-12.38 0-7.77-5.51-10.25-12.7-13.39l-10.93-4.82c-7.1-3-15.42-8.41-15.42-19.61 0-11.63 10.14-20.2 24-20.2a31.47 31.47 0 0 1 22.42 9.43l-5.14 6.22a24.38 24.38 0 0 0 -17.28-7.14c-8.54 0-14.19 4.31-14.19 11.12 0 7.33 6.63 10.08 12.6 12.6l10.82 4.65c8.81 3.79 15.68 9 15.68 20.36 0 12-9.94 21.63-25.94 21.63a36.49 36.49 0 0 1 -26.63-11.26z"/></g></svg>